<?xml version="1.0" encoding="UTF-8" standalone="no"?>
<svg
   xmlns:dc="http://purl.org/dc/elements/1.1/"
   xmlns:cc="http://web.resource.org/cc/"
   xmlns:rdf="http://www.w3.org/1999/02/22-rdf-syntax-ns#"
   xmlns:svg="http://www.w3.org/2000/svg"
   xmlns="http://www.w3.org/2000/svg"
   xmlns:xlink="http://www.w3.org/1999/xlink"
   xmlns:sodipodi="http://inkscape.sourceforge.net/DTD/sodipodi-0.dtd"
   xmlns:inkscape="http://www.inkscape.org/namespaces/inkscape"
   width="128.00000px"
   height="128.00000px"
   viewBox="0 0 227.758 187.914"
   overflow="visible"
   enable-background="new 0 0 227.758 187.914"
   xml:space="preserve"
   id="svg2"
   sodipodi:version="0.32"
   inkscape:version="0.42"
   sodipodi:docname="kleanSweep.svg"
   sodipodi:docbase="/Users/troy/Gg3/artwork/kleanSweep"
   inkscape:export-filename="/Users/troy/Gg3/artwork/kleanSweep/kleanSweep.png"
   inkscape:export-xdpi="90.000000"
   inkscape:export-ydpi="90.000000"><metadata
   id="metadata22"><rdf:RDF><cc:Work
       rdf:about=""><dc:format>image/svg+xml</dc:format><dc:type
         rdf:resource="http://purl.org/dc/dcmitype/StillImage" /></cc:Work></rdf:RDF></metadata><defs
   id="defs20"><linearGradient
   id="linearGradient2362"><stop
     style="stop-color:#4b4132;stop-opacity:1.0000000;"
     offset="0.0000000"
     id="stop2364" /><stop
     style="stop-color:#4b4132;stop-opacity:0.0000000;"
     offset="1.0000000"
     id="stop2366" /></linearGradient><linearGradient
   id="linearGradient2222"><stop
     id="stop2224"
     offset="0.0000000"
     style="stop-color:#4b3200;stop-opacity:1.0000000;" /><stop
     id="stop2228"
     offset="1.0000000"
     style="stop-color:#e1af32;stop-opacity:1.0000000;" /></linearGradient><linearGradient
   id="linearGradient2108"><stop
     id="stop2110"
     offset="0.0000000"
     style="stop-color:#af1900;stop-opacity:1.0000000;" /><stop
     style="stop-color:#e1af64;stop-opacity:1.0000000;"
     offset="0.25000000"
     id="stop2112" /><stop
     id="stop2114"
     offset="1.0000000"
     style="stop-color:#961900;stop-opacity:1.0000000;" /></linearGradient><linearGradient
   id="linearGradient2099"><stop
     style="stop-color:#964b00;stop-opacity:1.0000000;"
     offset="0.0000000"
     id="stop2101" /><stop
     id="stop2105"
     offset="1.0000000"
     style="stop-color:#ffeb96;stop-opacity:1.0000000;" /></linearGradient><linearGradient
   id="linearGradient2380"><stop
     style="stop-color:#7d7d7d;stop-opacity:1.0000000;"
     offset="0.0000000"
     id="stop2382" /><stop
     style="stop-color:#c8c8e1;stop-opacity:1.0000000;"
     offset="1.0000000"
     id="stop2384" /></linearGradient><linearGradient
   id="linearGradient2355"><stop
     style="stop-color:#96af96;stop-opacity:1.0000000;"
     offset="0.0000000"
     id="stop2357" /><stop
     style="stop-color:#afafaf;stop-opacity:0.19607843;"
     offset="1.0000000"
     id="stop2359" /></linearGradient><linearGradient
   id="linearGradient2290"><stop
     style="stop-color:#7d6400;stop-opacity:1.0000000;"
     offset="0.0000000"
     id="stop2292" /><stop
     id="stop2298"
     offset="0.50000000"
     style="stop-color:#c89632;stop-opacity:1.0000000;" /><stop
     style="stop-color:#af7d00;stop-opacity:1.0000000;"
     offset="1.0000000"
     id="stop2294" /></linearGradient><linearGradient
   id="linearGradient2248"><stop
     style="stop-color:#ffffff;stop-opacity:0.68627453;"
     offset="0.0000000"
     id="stop2250" /><stop
     id="stop2254"
     offset="1.0000000"
     style="stop-color:#ffffff;stop-opacity:0.0000000;" /></linearGradient><linearGradient
   id="linearGradient2087"><stop
     style="stop-color:#e13219;stop-opacity:1.0000000;"
     offset="0.0000000"
     id="stop2089" /><stop
     id="stop2095"
     offset="0.25000000"
     style="stop-color:#ffc896;stop-opacity:1.0000000;" /><stop
     style="stop-color:#e10000;stop-opacity:1.0000000;"
     offset="1.0000000"
     id="stop2091" /></linearGradient><linearGradient
   id="linearGradient2058"><stop
     id="stop2072"
     offset="0.0000000"
     style="stop-color:#c28219;stop-opacity:1.0000000;" /><stop
     id="stop2068"
     offset="0.50000000"
     style="stop-color:#e1af32;stop-opacity:1.0000000;" /><stop
     style="stop-color:#ffe164;stop-opacity:1.0000000;"
     offset="1.0000000"
     id="stop2062" /></linearGradient><linearGradient
   inkscape:collect="always"
   xlink:href="#linearGradient2058"
   id="linearGradient2074"
   gradientUnits="userSpaceOnUse"
   x1="131.66394"
   y1="47.169830"
   x2="168.20938"
   y2="182.04979" />
		
		
		
	<linearGradient
   inkscape:collect="always"
   xlink:href="#linearGradient2087"
   id="linearGradient2093"
   x1="91.829964"
   y1="85.719063"
   x2="171.89389"
   y2="118.52496"
   gradientUnits="userSpaceOnUse"
   gradientTransform="matrix(1.158087,0.153852,-0.218652,1.216324,12.65366,-58.80514)" /><linearGradient
   inkscape:collect="always"
   xlink:href="#linearGradient2108"
   id="linearGradient2103"
   x1="176.78600"
   y1="81.402489"
   x2="97.648941"
   y2="120.53936"
   gradientUnits="userSpaceOnUse"
   gradientTransform="matrix(1.158087,0.153852,-0.218652,1.216324,12.65366,-58.80514)" /><linearGradient
   inkscape:collect="always"
   xlink:href="#linearGradient2058"
   id="linearGradient2239"
   gradientUnits="userSpaceOnUse"
   x1="131.66394"
   y1="47.169830"
   x2="168.20938"
   y2="182.04979" />
		
	<linearGradient
   inkscape:collect="always"
   xlink:href="#linearGradient2058"
   id="linearGradient2242"
   gradientUnits="userSpaceOnUse"
   x1="131.66394"
   y1="47.169830"
   x2="168.20938"
   y2="182.04979"
   gradientTransform="translate(20.00000,0.000000)" /><linearGradient
   inkscape:collect="always"
   xlink:href="#linearGradient2248"
   id="linearGradient2246"
   gradientUnits="userSpaceOnUse"
   x1="131.66394"
   y1="47.169830"
   x2="165.61945"
   y2="182.33755" /><linearGradient
   inkscape:collect="always"
   xlink:href="#linearGradient2248"
   id="linearGradient2258"
   gradientUnits="userSpaceOnUse"
   x1="131.66394"
   y1="47.169830"
   x2="165.61945"
   y2="182.33755" /><linearGradient
   inkscape:collect="always"
   xlink:href="#linearGradient2248"
   id="linearGradient2263"
   gradientUnits="userSpaceOnUse"
   x1="150.27295"
   y1="51.822083"
   x2="155.91040"
   y2="158.06494" /><linearGradient
   inkscape:collect="always"
   xlink:href="#linearGradient2248"
   id="linearGradient2270"
   gradientUnits="userSpaceOnUse"
   x1="123.50999"
   y1="53.227131"
   x2="148.04585"
   y2="136.40228"
   gradientTransform="matrix(1.036774,0.250371,-0.248550,1.177938,28.28712,-72.40379)" /><linearGradient
   inkscape:collect="always"
   xlink:href="#linearGradient2058"
   id="linearGradient2284"
   gradientUnits="userSpaceOnUse"
   x1="95.425934"
   y1="185.78433"
   x2="173.58417"
   y2="48.517513" />
		
		
	<linearGradient
   inkscape:collect="always"
   xlink:href="#linearGradient2290"
   id="linearGradient2296"
   x1="160.87575"
   y1="-6.0283246"
   x2="177.57898"
   y2="6.5176668"
   gradientUnits="userSpaceOnUse"
   gradientTransform="matrix(0.970549,3.469621e-2,-0.125523,1.171861,43.84518,-16.90170)" /><linearGradient
   inkscape:collect="always"
   xlink:href="#linearGradient2058"
   id="linearGradient2306"
   x1="135.76375"
   y1="13.268689"
   x2="153.47618"
   y2="38.360672"
   gradientUnits="userSpaceOnUse"
   gradientTransform="matrix(1.056561,0.144286,-0.199484,1.140700,17.40574,-25.07418)" /><linearGradient
   inkscape:collect="always"
   xlink:href="#linearGradient2222"
   id="linearGradient2314"
   x1="163.43690"
   y1="28.231882"
   x2="175.16629"
   y2="-19.814198"
   gradientUnits="userSpaceOnUse"
   gradientTransform="matrix(0.970549,3.469621e-2,-0.125523,1.171861,43.84518,-16.90170)" /><linearGradient
   inkscape:collect="always"
   xlink:href="#linearGradient2099"
   id="linearGradient2322"
   x1="138.65898"
   y1="44.695641"
   x2="146.30885"
   y2="18.514635"
   gradientUnits="userSpaceOnUse"
   gradientTransform="matrix(1.056561,0.144286,-0.199484,1.140700,17.40574,-25.07418)" /><linearGradient
   inkscape:collect="always"
   xlink:href="#linearGradient2355"
   id="linearGradient2361"
   x1="48.899170"
   y1="126.54962"
   x2="73.932419"
   y2="180.11136"
   gradientUnits="userSpaceOnUse"
   gradientTransform="matrix(1.026606,0.000000,0.000000,1.026606,-12.31017,6.628761)" /><linearGradient
   inkscape:collect="always"
   xlink:href="#linearGradient2355"
   id="linearGradient2369"
   x1="36.190361"
   y1="88.649078"
   x2="52.693695"
   y2="165.37265"
   gradientUnits="userSpaceOnUse" />
		
	<linearGradient
   inkscape:collect="always"
   xlink:href="#linearGradient2058"
   id="linearGradient2373"
   gradientUnits="userSpaceOnUse"
   x1="131.66394"
   y1="47.169830"
   x2="170.74467"
   y2="181.72910"
   gradientTransform="matrix(1.158087,0.153852,-0.218652,1.216324,12.65366,-58.80514)" /><linearGradient
   inkscape:collect="always"
   xlink:href="#linearGradient2099"
   id="linearGradient2375"
   gradientUnits="userSpaceOnUse"
   x1="101.22212"
   y1="187.31804"
   x2="173.58417"
   y2="48.517513"
   gradientTransform="matrix(1.158087,0.153852,-0.218652,1.216324,12.65366,-58.80514)" /><linearGradient
   inkscape:collect="always"
   xlink:href="#linearGradient2355"
   id="linearGradient2378"
   gradientUnits="userSpaceOnUse"
   x1="20.190357"
   y1="64.252121"
   x2="33.981827"
   y2="94.864159"
   gradientTransform="matrix(2.284645,0.340519,-0.340519,2.284645,34.04608,-87.37364)" /><linearGradient
   inkscape:collect="always"
   xlink:href="#linearGradient2380"
   id="linearGradient2386"
   x1="11.481337"
   y1="67.408630"
   x2="40.966629"
   y2="102.93406"
   gradientUnits="userSpaceOnUse"
   gradientTransform="matrix(2.284645,0.340519,-0.340519,2.284645,34.04608,-87.37364)" /><linearGradient
   inkscape:collect="always"
   xlink:href="#linearGradient2380"
   id="linearGradient2388"
   x1="30.080181"
   y1="139.09561"
   x2="58.491199"
   y2="190.59761"
   gradientUnits="userSpaceOnUse"
   gradientTransform="matrix(1.026606,0.000000,0.000000,1.026606,-12.31017,6.628761)" /><linearGradient
   inkscape:collect="always"
   xlink:href="#linearGradient2248"
   id="linearGradient2218"
   x1="36.101894"
   y1="143.37180"
   x2="161.31146"
   y2="198.99274"
   gradientUnits="userSpaceOnUse"
   gradientTransform="matrix(1.038334,0.000000,0.000000,1.010109,9.045473,-7.432555)" /><linearGradient
   inkscape:collect="always"
   xlink:href="#linearGradient2248"
   id="linearGradient2293"
   gradientUnits="userSpaceOnUse"
   gradientTransform="matrix(0.788981,0.197730,-0.337359,0.592546,74.89356,-26.63138)"
   x1="135.92572"
   y1="20.918722"
   x2="164.73236"
   y2="40.703709" /><linearGradient
   inkscape:collect="always"
   xlink:href="#linearGradient2248"
   id="linearGradient2318"
   gradientUnits="userSpaceOnUse"
   gradientTransform="matrix(1.726957,6.173798e-2,-0.223352,2.085161,73.64283,-53.41812)"
   x1="80.013092"
   y1="14.030186"
   x2="73.039574"
   y2="31.022682" /><linearGradient
   inkscape:collect="always"
   xlink:href="#linearGradient2355"
   id="linearGradient2334"
   gradientUnits="userSpaceOnUse"
   gradientTransform="matrix(4.065204,0.589435,-0.605906,3.954699,58.04510,-167.2642)"
   x1="1.4346440"
   y1="71.013580"
   x2="9.1247883"
   y2="74.354294" /><linearGradient
   inkscape:collect="always"
   xlink:href="#linearGradient2355"
   id="linearGradient2336"
   gradientUnits="userSpaceOnUse"
   gradientTransform="matrix(1.026606,0.000000,0.000000,0.998700,-14.84527,9.807788)"
   x1="43.536983"
   y1="142.00366"
   x2="71.761772"
   y2="161.36421" /><linearGradient
   inkscape:collect="always"
   xlink:href="#linearGradient2058"
   id="linearGradient2342"
   gradientUnits="userSpaceOnUse"
   gradientTransform="matrix(1.097063,0.145745,-0.207131,1.152232,27.11845,-32.76021)"
   x1="135.76375"
   y1="13.268689"
   x2="153.47618"
   y2="38.360672" /><linearGradient
   inkscape:collect="always"
   xlink:href="#linearGradient2099"
   id="linearGradient2344"
   gradientUnits="userSpaceOnUse"
   gradientTransform="matrix(1.097063,0.145745,-0.207131,1.152232,27.11845,-32.76021)"
   x1="138.65898"
   y1="44.695641"
   x2="146.30885"
   y2="18.514635" /><linearGradient
   inkscape:collect="always"
   xlink:href="#linearGradient2099"
   id="linearGradient2346"
   gradientUnits="userSpaceOnUse"
   x1="127.07889"
   y1="188.73439"
   x2="157.05867"
   y2="67.858597" /><linearGradient
   inkscape:collect="always"
   xlink:href="#linearGradient2099"
   id="linearGradient2348"
   gradientUnits="userSpaceOnUse"
   x1="127.07889"
   y1="188.73439"
   x2="157.05867"
   y2="67.858597" /><linearGradient
   inkscape:collect="always"
   xlink:href="#linearGradient2099"
   id="linearGradient2350"
   gradientUnits="userSpaceOnUse"
   x1="127.07889"
   y1="188.73439"
   x2="157.05867"
   y2="67.858597" /><linearGradient
   inkscape:collect="always"
   xlink:href="#linearGradient2099"
   id="linearGradient2352"
   gradientUnits="userSpaceOnUse"
   x1="127.07889"
   y1="188.73439"
   x2="157.05867"
   y2="67.858597" /><linearGradient
   inkscape:collect="always"
   xlink:href="#linearGradient2099"
   id="linearGradient2354"
   gradientUnits="userSpaceOnUse"
   x1="127.07889"
   y1="188.73439"
   x2="157.05867"
   y2="67.858597" /><linearGradient
   inkscape:collect="always"
   xlink:href="#linearGradient2099"
   id="linearGradient2356"
   gradientUnits="userSpaceOnUse"
   x1="127.07889"
   y1="188.73439"
   x2="157.05867"
   y2="67.858597" /><radialGradient
   inkscape:collect="always"
   xlink:href="#linearGradient2362"
   id="radialGradient2368"
   cx="129.65828"
   cy="122.53450"
   fx="129.65828"
   fy="122.53450"
   r="91.443207"
   gradientUnits="userSpaceOnUse" /><linearGradient
   inkscape:collect="always"
   xlink:href="#linearGradient2355"
   id="linearGradient2371"
   gradientUnits="userSpaceOnUse"
   gradientTransform="matrix(4.065204,0.589435,-0.605906,3.954699,58.04510,-167.2642)"
   x1="-2.8752789"
   y1="60.395084"
   x2="1.6865652"
   y2="63.345833" /><linearGradient
   inkscape:collect="always"
   xlink:href="#linearGradient2355"
   id="linearGradient2374"
   gradientUnits="userSpaceOnUse"
   gradientTransform="matrix(1.026606,0.000000,0.000000,0.998700,-14.84527,9.807788)"
   x1="40.213352"
   y1="138.58716"
   x2="68.727768"
   y2="158.63101" /><linearGradient
   inkscape:collect="always"
   xlink:href="#linearGradient2099"
   id="linearGradient2411"
   gradientUnits="userSpaceOnUse"
   x1="117.54601"
   y1="205.14758"
   x2="161.58139"
   y2="61.833759" /><linearGradient
   inkscape:collect="always"
   xlink:href="#linearGradient2099"
   id="linearGradient2413"
   gradientUnits="userSpaceOnUse"
   x1="117.54601"
   y1="205.14758"
   x2="161.58139"
   y2="61.833759" /><linearGradient
   inkscape:collect="always"
   xlink:href="#linearGradient2099"
   id="linearGradient2415"
   gradientUnits="userSpaceOnUse"
   x1="117.54601"
   y1="205.14758"
   x2="161.58139"
   y2="61.833759" /><linearGradient
   inkscape:collect="always"
   xlink:href="#linearGradient2099"
   id="linearGradient2417"
   gradientUnits="userSpaceOnUse"
   x1="117.54601"
   y1="205.14758"
   x2="161.58139"
   y2="61.833759" /><linearGradient
   inkscape:collect="always"
   xlink:href="#linearGradient2099"
   id="linearGradient2419"
   gradientUnits="userSpaceOnUse"
   x1="117.54601"
   y1="205.14758"
   x2="161.58139"
   y2="61.833759" /><linearGradient
   inkscape:collect="always"
   xlink:href="#linearGradient2099"
   id="linearGradient2421"
   gradientUnits="userSpaceOnUse"
   x1="117.54601"
   y1="205.14758"
   x2="161.58139"
   y2="61.833759" /><linearGradient
   inkscape:collect="always"
   xlink:href="#linearGradient2099"
   id="linearGradient2424"
   gradientUnits="userSpaceOnUse"
   x1="117.54601"
   y1="205.14758"
   x2="161.58139"
   y2="61.833759" /><linearGradient
   inkscape:collect="always"
   xlink:href="#linearGradient2099"
   id="linearGradient2427"
   gradientUnits="userSpaceOnUse"
   x1="117.54601"
   y1="205.14758"
   x2="161.58139"
   y2="61.833759" /><linearGradient
   inkscape:collect="always"
   xlink:href="#linearGradient2099"
   id="linearGradient2430"
   gradientUnits="userSpaceOnUse"
   x1="117.54601"
   y1="205.14758"
   x2="161.58139"
   y2="61.833759" /><linearGradient
   inkscape:collect="always"
   xlink:href="#linearGradient2099"
   id="linearGradient2433"
   gradientUnits="userSpaceOnUse"
   x1="117.54601"
   y1="205.14758"
   x2="161.58139"
   y2="61.833759" /><linearGradient
   inkscape:collect="always"
   xlink:href="#linearGradient2099"
   id="linearGradient2436"
   gradientUnits="userSpaceOnUse"
   x1="117.54601"
   y1="205.14758"
   x2="161.58139"
   y2="61.833759"
   gradientTransform="matrix(0.996161,-9.270773e-2,8.753514e-2,1.055026,-7.131747,8.291459)" /><linearGradient
   inkscape:collect="always"
   xlink:href="#linearGradient2099"
   id="linearGradient2439"
   gradientUnits="userSpaceOnUse"
   x1="117.54601"
   y1="205.14758"
   x2="161.58139"
   y2="61.833759" /><linearGradient
   inkscape:collect="always"
   xlink:href="#linearGradient2099"
   id="linearGradient2462"
   gradientUnits="userSpaceOnUse"
   x1="117.54601"
   y1="205.14758"
   x2="161.58139"
   y2="61.833759" /><linearGradient
   inkscape:collect="always"
   xlink:href="#linearGradient2099"
   id="linearGradient2464"
   gradientUnits="userSpaceOnUse"
   gradientTransform="matrix(0.996161,-9.270773e-2,8.753514e-2,1.055026,-7.131747,8.291459)"
   x1="117.54601"
   y1="205.14758"
   x2="161.58139"
   y2="61.833759" /><linearGradient
   inkscape:collect="always"
   xlink:href="#linearGradient2099"
   id="linearGradient2466"
   gradientUnits="userSpaceOnUse"
   x1="117.54601"
   y1="205.14758"
   x2="161.58139"
   y2="61.833759" /><linearGradient
   inkscape:collect="always"
   xlink:href="#linearGradient2099"
   id="linearGradient2468"
   gradientUnits="userSpaceOnUse"
   x1="117.54601"
   y1="205.14758"
   x2="161.58139"
   y2="61.833759" /><linearGradient
   inkscape:collect="always"
   xlink:href="#linearGradient2099"
   id="linearGradient2470"
   gradientUnits="userSpaceOnUse"
   x1="117.54601"
   y1="205.14758"
   x2="161.58139"
   y2="61.833759" /><linearGradient
   inkscape:collect="always"
   xlink:href="#linearGradient2099"
   id="linearGradient2472"
   gradientUnits="userSpaceOnUse"
   x1="117.54601"
   y1="205.14758"
   x2="161.58139"
   y2="61.833759" /><linearGradient
   inkscape:collect="always"
   xlink:href="#linearGradient2099"
   id="linearGradient2524"
   x1="165.14369"
   y1="164.10068"
   x2="147.97260"
   y2="85.684250"
   gradientUnits="userSpaceOnUse" /></defs><sodipodi:namedview
   inkscape:cy="80.941384"
   inkscape:cx="36.023959"
   inkscape:zoom="1.0000000"
   inkscape:window-height="1107"
   inkscape:window-width="1224"
   inkscape:pageshadow="2"
   inkscape:pageopacity="0.0"
   borderopacity="1.0"
   bordercolor="#666666"
   pagecolor="#ffffff"
   id="base"
   inkscape:window-x="1280"
   inkscape:window-y="22"
   inkscape:current-layer="layer1" />
	
	
	
<g
   inkscape:groupmode="layer"
   id="layer1"
   inkscape:label="layer1"><path
     sodipodi:type="arc"
     style="opacity:1.0000000;color:#000000;fill:url(#radialGradient2368);fill-opacity:1.0000000;fill-rule:nonzero;stroke:none;stroke-width:2.2241993;stroke-linecap:butt;stroke-linejoin:miter;marker:none;marker-start:none;marker-mid:none;marker-end:none;stroke-miterlimit:4.0000000;stroke-dasharray:none;stroke-dashoffset:0.0000000;stroke-opacity:1.0000000;visibility:visible;display:inline;overflow:visible"
     id="path2360"
     sodipodi:cx="129.65828"
     sodipodi:cy="122.53450"
     sodipodi:rx="91.443207"
     sodipodi:ry="91.443207"
     d="M 221.10149 122.53450 A 91.443207 91.443207 0 1 1  38.215073,122.53450 A 91.443207 91.443207 0 1 1  221.10149 122.53450 z"
     transform="matrix(1.210821,0.000000,0.000000,0.268656,-40.32445,149.6669)" /><path
     style="fill:url(#linearGradient2371);fill-opacity:1.0000000;stroke:none;stroke-width:1.5000000;stroke-miterlimit:4.0000000;stroke-dasharray:none"
     d="M 37.343751,46.062500 C 28.506001,43.788088 13.781971,51.876180 21.937500,65.343749 C 12.304213,61.061026 5.2214143,72.453293 13.218750,80.218750 C 7.1090249,79.367711 1.4420129,83.430495 0.53125000,89.375000 C -0.15784897,93.872705 2.0518178,98.134129 5.8125000,100.34375 C 7.5067328,97.502800 10.539877,95.511171 14.156250,95.500000 C 14.166835,95.500000 14.176924,95.499967 14.187500,95.500000 C 14.774389,95.500000 15.347569,95.559843 15.906250,95.656250 C 15.890415,95.431700 15.874999,95.197450 15.875000,94.968750 C 15.875000,93.872991 16.179812,92.884379 16.531250,91.906250 C 16.601312,91.707803 16.573375,91.473549 16.656250,91.281250 C 16.659705,91.273304 16.652774,91.257936 16.656250,91.250000 C 16.857606,90.786903 17.260445,90.453617 17.531250,90.031250 C 17.923090,89.417483 18.226966,88.727564 18.750000,88.218750 C 18.756188,88.212730 18.775045,88.224756 18.781250,88.218750 C 19.665866,87.362518 20.708533,86.636237 21.875000,86.156250 C 22.066449,86.077473 22.301593,86.097392 22.500000,86.031250 C 23.520928,85.681364 24.574835,85.406250 25.718750,85.406250 C 26.203599,85.406250 26.659935,85.525005 27.125000,85.593750 C 27.518810,85.649060 27.930544,85.647603 28.312500,85.750000 C 28.320696,85.737639 28.335503,85.731069 28.343750,85.718750 C 27.153479,78.239098 33.139534,73.375001 36.593750,73.375000 C 40.638719,73.375000 44.089905,80.214409 45.593750,85.875000 C 57.885020,80.867789 69.509308,77.084025 69.656250,79.656250 C 73.631709,78.446138 76.782146,75.152405 77.437500,70.875000 C 78.350672,64.909642 74.132690,59.326708 68.000000,58.437500 C 65.279866,58.043098 62.639616,58.636554 60.468750,59.937500 C 58.762848,57.898705 60.819890,56.449181 57.937501,56.031250 C 55.021601,55.608464 51.693478,56.561791 49.437501,58.062500 C 49.223057,52.385541 45.361888,48.125983 37.343751,46.062500 z "
     transform="matrix(1.779359,0.000000,0.000000,1.779359,0.000000,-19.92200)"
     id="path5"
     sodipodi:nodetypes="cccscsscsssssssssssscsccsscscs" /><path
     transform="translate(0.000000,-7.740000e-6)"
     style="fill:url(#linearGradient2374);fill-opacity:1.0000000;stroke:none;stroke-width:2.5000000;stroke-miterlimit:4.0000000;stroke-dasharray:none"
     id="path7"
     d="M 71.185706,159.56710 C 70.737049,159.56710 70.297063,159.59979 69.857077,159.63247 C 69.721613,159.19390 69.576395,158.76060 69.407336,158.33784 C 76.962968,156.46549 82.559250,149.82055 82.559250,141.88729 C 82.559250,132.50128 74.737026,110.65681 65.088749,110.65681 C 58.924602,110.65681 48.210051,119.31921 50.408803,132.69421 C 48.926287,132.29677 47.371162,132.06588 45.758600,132.06588 C 36.110323,132.06588 28.288099,139.67548 28.288099,149.06149 C 28.288099,149.46843 28.306522,149.87009 28.334698,150.26965 C 27.323596,150.09254 26.286485,149.98501 25.223365,149.98501 C 15.575088,149.98501 7.7528632,157.59460 7.7528632,166.98061 C 7.7528632,176.36662 15.575088,183.97621 25.223365,183.97621 C 26.436037,183.97621 27.619450,183.85497 28.761680,183.62620 C 29.802043,192.04546 37.158272,198.57655 46.094550,198.57655 C 52.431007,198.57655 57.963350,195.28307 61.025918,190.37025 C 63.889081,192.37016 67.391635,193.55725 71.185706,193.55725 C 80.833983,193.55725 88.656210,185.94766 88.656210,176.56165 C 88.656210,167.17669 80.835066,159.56710 71.185706,159.56710 z "
     sodipodi:nodetypes="cccsscsscssscscssc" /></g><g
   inkscape:groupmode="layer"
   id="layer2"
   inkscape:label="layer2"><path
     sodipodi:nodetypes="csccccccccccccccc"
     style="fill:url(#linearGradient2373);fill-opacity:1.0000000;stroke:url(#linearGradient2375);stroke-width:2.5603101;stroke-linecap:round;stroke-linejoin:miter;stroke-miterlimit:4.0000000;stroke-dasharray:none;stroke-opacity:1.0000000"
     id="path10"
     d="M 200.90100,67.978729 C 206.19922,54.599939 209.50520,40.965200 198.96712,29.470259 C 190.35706,20.079579 179.57019,17.402434 161.30648,19.537918 C 123.45420,23.962900 84.654614,81.525292 69.332434,107.87675 C 50.818055,139.71715 43.361425,181.74960 91.537864,195.79576 C 89.325933,190.02830 86.390271,178.91069 88.373677,172.91889 C 92.031819,177.17739 105.70339,194.01454 121.25831,197.69138 C 117.20500,189.90581 115.73600,182.87768 116.30923,177.71836 C 126.49000,188.44953 147.89030,196.68980 161.54231,198.64390 C 159.07912,193.15216 157.49168,186.06787 157.83130,179.93613 C 169.75103,190.54387 183.57471,192.80830 192.56459,193.17169 C 187.66424,187.92927 184.09583,182.20184 183.54474,177.17843 C 192.48188,182.41620 209.70234,183.89758 215.63592,182.23132 C 210.58729,178.41831 203.71025,175.02950 199.53832,168.97744 C 215.66502,171.70229 225.08655,161.74225 225.66277,157.13162 C 197.23131,161.99759 168.65863,143.84496 188.73224,97.684447 C 192.50632,89.004951 196.82700,78.267251 200.90100,67.978729 z " /><g
     id="g2510"
     style="fill-opacity:1.0;fill:url(#linearGradient2524)"><path
       sodipodi:nodetypes="cscs"
       d="M 91.289830,137.74067 C 90.694195,144.99531 90.959127,153.67626 89.648794,146.24689 C 86.180528,126.58240 89.671725,108.89853 132.43316,62.523204 C 101.19227,102.62229 93.203269,114.43563 91.289830,137.74067 z "
       id="path2183"
       style="fill:url(#linearGradient2524);fill-opacity:1.0;fill-rule:nonzero;stroke:none;stroke-width:1.0000000pt;stroke-linecap:butt;stroke-linejoin:miter;stroke-opacity:1.0000000" /><path
       sodipodi:nodetypes="cscs"
       d="M 133.60635,141.73687 C 134.36257,147.88344 137.26451,157.37767 135.03009,153.00679 C 123.86388,131.16402 132.21214,103.88526 149.66760,67.635246 C 139.21173,97.974375 130.48441,116.36163 133.60635,141.73687 z "
       id="path2191"
       style="fill:url(#linearGradient2524);fill-opacity:1.0;fill-rule:nonzero;stroke:none;stroke-width:1.0000000pt;stroke-linecap:butt;stroke-linejoin:miter;stroke-opacity:1.0000000" /><path
       d="M 164.74750,159.29198 C 165.94597,162.89759 164.09686,161.55425 161.14794,154.05521 C 150.65813,127.37982 152.15587,106.13081 175.95000,54.144337 C 153.15630,110.60249 155.11104,130.30076 164.74750,159.29198 z "
       id="path2193"
       style="fill:url(#linearGradient2524);fill-opacity:1.0;fill-rule:nonzero;stroke:none;stroke-width:1.0000000pt;stroke-linecap:butt;stroke-linejoin:miter;stroke-opacity:1.0000000"
       sodipodi:nodetypes="cscs" /><path
       sodipodi:nodetypes="cscs"
       d="M 174.52138,118.72501 C 174.16269,124.36554 174.44332,141.26238 172.80524,129.79272 C 170.45256,113.31947 174.43853,92.663378 187.15591,61.748147 C 177.85421,90.737728 175.17452,108.45377 174.52138,118.72501 z "
       id="path2195"
       style="fill:url(#linearGradient2524);fill-opacity:1.0;fill-rule:nonzero;stroke:none;stroke-width:1.0000000pt;stroke-linecap:butt;stroke-linejoin:miter;stroke-opacity:1.0000000" /><path
       sodipodi:nodetypes="cccs"
       d="M 70.863614,153.79763 C 73.183486,167.99829 71.939363,163.38516 71.939363,163.38516 C 62.470976,144.84442 70.885003,122.00020 82.323513,104.36102 C 82.323513,104.36102 67.662413,134.20206 70.863614,153.79763 z "
       id="path2207"
       style="fill:url(#linearGradient2524);fill-opacity:1.0;fill-rule:nonzero;stroke:none;stroke-width:1.0000000pt;stroke-linecap:butt;stroke-linejoin:miter;stroke-opacity:1.0000000" /><path
       sodipodi:nodetypes="cccs"
       d="M 110.44877,152.45629 C 113.58200,167.27903 112.07432,162.48785 112.07432,162.48785 C 101.55258,143.45035 108.64190,119.01039 119.05092,99.896991 C 119.05092,99.896991 106.12518,132.00230 110.44877,152.45629 z "
       id="path2230"
       style="fill:url(#linearGradient2524);fill-opacity:1.0;fill-rule:nonzero;stroke:none;stroke-width:1.0000000pt;stroke-linecap:butt;stroke-linejoin:miter;stroke-opacity:1.0000000" /></g></g><g
   inkscape:groupmode="layer"
   id="layer3"
   inkscape:label="layer3"><path
     style="fill:url(#linearGradient2093);fill-opacity:1.0000000;stroke:url(#linearGradient2103);stroke-width:2.5603101;stroke-miterlimit:4.0000000;stroke-dasharray:none"
     id="path17"
     d="M 187.43753,100.83628 C 187.84491,99.796968 188.26932,98.748699 188.73058,97.686646 C 190.74151,93.063239 192.90708,87.850130 195.10711,82.438606 C 134.98954,90.530569 103.80925,72.105429 108.37776,53.821536 C 102.72963,59.997939 97.400233,66.531763 92.511503,73.002082 C 88.506103,87.779548 122.23013,113.61850 187.43753,100.83628 z "
     sodipodi:nodetypes="cscccc" /></g><g
   inkscape:groupmode="layer"
   id="layer4"
   inkscape:label="layer4"><path
     style="fill:url(#linearGradient2270);fill-opacity:1.0000000;stroke:none;stroke-width:3.0000002;stroke-linecap:round;stroke-linejoin:miter;stroke-miterlimit:4.0000000;stroke-dasharray:none;stroke-opacity:1.0000000"
     d="M 174.69756,22.338940 C 172.88005,22.026827 161.95705,21.214865 160.11967,21.217795 C 122.19769,28.827311 89.901003,85.965373 88.766373,109.40501 C 99.663643,150.37471 170.70936,60.363233 185.98712,70.607810 C 192.72462,66.239790 199.69506,50.794440 196.76488,40.555656 C 194.20936,31.626086 187.42002,24.523739 174.69756,22.338940 z "
     id="path2235"
     sodipodi:nodetypes="ccccsc" /><path
     style="fill:url(#linearGradient2218);fill-opacity:1.0000000;stroke:none;stroke-width:0.0000000;stroke-linecap:round;stroke-linejoin:miter;stroke-miterlimit:4.0000000;stroke-dasharray:none;stroke-opacity:1.0000000"
     d="M 122.15172,177.21720 C 169.85519,191.04557 122.89439,149.26592 195.22545,157.57042 C 170.42009,116.08955 124.46025,138.82679 80.204648,157.70579 C 61.103992,165.85394 77.470402,183.01888 83.550803,184.93597 C 82.691551,177.60296 83.693460,167.96027 87.290300,165.38708 C 94.251819,173.59906 103.33065,184.90520 114.04696,189.57017 C 112.55115,184.23792 109.56327,176.97053 113.91717,172.42989 C 117.24583,172.92839 119.74483,174.95595 122.15172,177.21720 z "
     id="path2208"
     sodipodi:nodetypes="ccsccccc" /></g><g
   inkscape:groupmode="layer"
   id="layer5"
   inkscape:label="layer5"><path
     style="fill:url(#linearGradient2342);fill-opacity:1.0000000;stroke:url(#linearGradient2344);stroke-width:2.5603101;stroke-miterlimit:4.0000000;stroke-dasharray:none"
     id="path13"
     d="M 200.61677,31.716716 C 197.01822,41.392156 180.83713,40.880178 170.08798,34.108282 C 162.76177,29.494792 159.76772,22.872676 161.52700,18.138616 C 163.28722,13.405926 169.95719,10.139955 178.64533,11.088677 C 191.39594,12.478707 204.21345,22.038535 200.61677,31.716716 z " /><path
     style="fill:url(#linearGradient2293);fill-opacity:1.0000000;stroke:none;stroke-width:3.5171010;stroke-miterlimit:4.0000000;stroke-dasharray:none"
     id="path2291"
     d="M 193.05376,26.757757 C 188.84434,31.530225 176.94577,29.488194 170.06860,24.697674 C 165.38108,21.433696 164.22181,17.570820 166.28034,15.235557 C 168.33936,12.901131 173.79929,11.886463 180.08041,13.342653 C 189.29887,15.478513 197.26220,21.983616 193.05376,26.757757 z " /><path
     style="fill:url(#linearGradient2296);fill-opacity:1.0000000;stroke:url(#linearGradient2314);stroke-width:2.4046886;stroke-linecap:butt;stroke-miterlimit:4.0000000;stroke-dasharray:none"
     id="path15"
     d="M 203.91677,-18.705316 L 225.23176,-18.587337 L 190.16473,22.355591 C 190.16473,22.355591 187.74026,26.046414 183.07938,24.585868 C 175.37472,22.170856 177.96301,17.977999 177.96301,17.977999 L 203.91677,-18.705316 z "
     sodipodi:nodetypes="cccscc" /><path
     style="fill:url(#linearGradient2318);fill-opacity:1.0000000;stroke:none;stroke-width:3.9576497;stroke-linecap:butt;stroke-miterlimit:4.0000000;stroke-dasharray:none"
     d="M 194.56053,-1.8046515 C 199.44272,1.0821549 191.84694,9.9143296 190.37143,14.754600 C 199.75466,2.9256796 205.11888,-4.5035969 214.50211,-16.332517 C 211.58347,-16.332517 208.37472,-16.440790 204.62394,-16.009100 C 200.45505,-10.186727 198.72943,-7.6270245 194.56053,-1.8046515 z "
     id="path2296"
     sodipodi:nodetypes="ccccc" /></g></svg>