<?xml version="1.0" encoding="UTF-8" standalone="no"?>
<!-- Created with Inkscape (http://www.inkscape.org/) -->

<svg
   xmlns:dc="http://purl.org/dc/elements/1.1/"
   xmlns:cc="http://creativecommons.org/ns#"
   xmlns:rdf="http://www.w3.org/1999/02/22-rdf-syntax-ns#"
   xmlns:svg="http://www.w3.org/2000/svg"
   xmlns="http://www.w3.org/2000/svg"
   version="1.1"
   width="256"
   height="256"
   id="svg2">
  <defs
     id="defs4" />
  <metadata
     id="metadata7">
    <rdf:RDF>
      <cc:Work
         rdf:about="">
        <dc:format>image/svg+xml</dc:format>
        <dc:type
           rdf:resource="http://purl.org/dc/dcmitype/StillImage" />
        <dc:title></dc:title>
      </cc:Work>
    </rdf:RDF>
  </metadata>
  <g
     transform="translate(0,-796.3622)"
     id="layer1">
    <path
       d="m 15.152288,11.129432 a 5.4295697,5.4295697 0 1 1 -10.8591395,0 5.4295697,5.4295697 0 1 1 10.8591395,0 z"
       transform="matrix(5.4428997,0,0,5.4428997,-11.765737,832.01865)"
       id="path2985"
       style="fill:#ffffff;fill-opacity:1;fill-rule:evenodd;stroke:#000000;stroke-width:1px;stroke-linecap:butt;stroke-linejoin:miter;stroke-opacity:1" />
    <path
       d="m 15.152288,11.129432 a 5.4295697,5.4295697 0 1 1 -10.8591395,0 5.4295697,5.4295697 0 1 1 10.8591395,0 z"
       transform="matrix(5.4428997,0,0,5.4428997,112.6301,958.47627)"
       id="path2985-0"
       style="fill:#ffffff;fill-opacity:1;fill-rule:evenodd;stroke:#000000;stroke-width:1px;stroke-linecap:butt;stroke-linejoin:miter;stroke-opacity:1" />
    <path
       d="M 67.957566,878.16259 C 163.48807,903.59106 171.04804,989.5004 171.04804,989.5004"
       id="path3786"
       style="fill:none;stroke:#000000;stroke-width:5.44289923px;stroke-linecap:butt;stroke-linejoin:miter;stroke-opacity:1" />
    <path
       d="M 138.05909,1035.547 C 39.779501,1040.3581 21.223215,918.02414 21.223215,918.02414"
       id="path3799"
       style="fill:none;stroke:#000000;stroke-width:5.44289923px;stroke-linecap:butt;stroke-linejoin:miter;stroke-opacity:1" />
    <path
       d="M 149.91754,968.96562 170.5714,987.18978 185.15059,965.564"
       id="path3826"
       style="fill:none;stroke:#000000;stroke-width:5.44289923px;stroke-linecap:butt;stroke-linejoin:miter;stroke-opacity:1" />
    <path
       d="M 3.2316023,927.06871 21.787888,916.41628 35.189652,935.31635"
       id="path3830"
       style="fill:none;stroke:#000000;stroke-width:5.44289923px;stroke-linecap:butt;stroke-linejoin:miter;stroke-opacity:1" />
    <path
       d="m 184.03189,806.41905 0,130.62977"
       id="path2994"
       style="fill:#ff0000;stroke:#2ea72b;stroke-width:16.32869911;stroke-linecap:butt;stroke-linejoin:miter;stroke-miterlimit:4;stroke-opacity:1;stroke-dasharray:none" />
    <path
       d="m 118.37347,871.38698 130.62959,0"
       id="path2996"
       style="fill:#ff0000;stroke:#2ea72b;stroke-width:16.32869911;stroke-linecap:butt;stroke-linejoin:miter;stroke-miterlimit:4;stroke-opacity:1;stroke-dasharray:none" />
  </g>
</svg>
