<?xml version="1.0" encoding="UTF-8" standalone="no"?>
<!-- Created with Inkscape (http://www.inkscape.org/) -->

<svg
   version="1.1"
   width="256"
   height="256"
   id="svg2"
   xmlns="http://www.w3.org/2000/svg"
   xmlns:svg="http://www.w3.org/2000/svg"
   xmlns:rdf="http://www.w3.org/1999/02/22-rdf-syntax-ns#"
   xmlns:cc="http://creativecommons.org/ns#"
   xmlns:dc="http://purl.org/dc/elements/1.1/">
  <defs
     id="defs4" />
  <metadata
     id="metadata7">
    <rdf:RDF>
      <cc:Work
         rdf:about="">
        <dc:format>image/svg+xml</dc:format>
        <dc:type
           rdf:resource="http://purl.org/dc/dcmitype/StillImage" />
      </cc:Work>
    </rdf:RDF>
  </metadata>
  <g
     transform="translate(0,-796.3622)"
     id="layer1">
    <path
       d="m 15.152288,11.129432 a 5.4295697,5.4295697 0 1 1 -10.8591395,0 5.4295697,5.4295697 0 1 1 10.8591395,0 z"
       transform="matrix(2.7453889,0,0,2.7453889,92.872706,823.36386)"
       id="path2985"
       style="fill:#ffffff;fill-opacity:1;fill-rule:evenodd;stroke:#000000;stroke-width:1px;stroke-linecap:butt;stroke-linejoin:miter;stroke-opacity:1" />
    <path
       d="m 15.152288,11.129432 a 5.4295697,5.4295697 0 1 1 -10.8591395,0 5.4295697,5.4295697 0 1 1 10.8591395,0 z"
       transform="matrix(2.7453889,0,0,2.7453889,155.61774,887.14885)"
       id="path2985-0"
       style="fill:#ffffff;fill-opacity:1;fill-rule:evenodd;stroke:#000000;stroke-width:1px;stroke-linecap:butt;stroke-linejoin:miter;stroke-opacity:1" />
    <path
       d="m 133.085,846.63879 c 48.18542,12.8262 51.99865,56.15847 51.99865,56.15847"
       id="path3786"
       style="fill:none;stroke:#000000;stroke-width:2.74538875px;stroke-linecap:butt;stroke-linejoin:miter;stroke-opacity:1" />
    <path
       d="m 168.44408,926.02342 c -49.57205,2.4268 -58.93181,-59.27852 -58.93181,-59.27852"
       id="path3799"
       style="fill:none;stroke:#000000;stroke-width:2.74538875px;stroke-linecap:butt;stroke-linejoin:miter;stroke-opacity:1" />
    <path
       d="m 174.42546,892.43968 10.41777,9.19235 7.35372,-10.90796"
       id="path3826"
       style="fill:none;stroke:#000000;stroke-width:2.74538875px;stroke-linecap:butt;stroke-linejoin:miter;stroke-opacity:1" />
    <path
       d="m 100.43734,871.30711 9.35975,-5.37328 6.75983,9.53314"
       id="path3830"
       style="fill:none;stroke:#000000;stroke-width:2.74538875px;stroke-linecap:butt;stroke-linejoin:miter;stroke-opacity:1" />
    <path
       d="m 70,821 130,0 40,40 0,90 -170,0 0,-130"
       id="path2988"
       style="fill:none;stroke:#000000;stroke-width:5.80581284px;stroke-linecap:butt;stroke-linejoin:miter;stroke-opacity:1" />
    <path
       d="m 6.4924908,853.05166 58.0581302,0"
       id="path2990"
       style="fill:none;stroke:#e77e18;stroke-width:5.8012414;stroke-linecap:butt;stroke-linejoin:miter;stroke-miterlimit:4;stroke-opacity:1;stroke-dasharray:none" />
    <path
       d="M 47.133182,835.63422 64.550621,853.05166 47.133182,870.4691"
       id="path2992"
       style="fill:none;stroke:#e77e18;stroke-width:5.8012414;stroke-linecap:butt;stroke-linejoin:miter;stroke-miterlimit:4;stroke-opacity:1;stroke-dasharray:none" />
    <path
       d="m 6.6306633,887.62005 58.0581767,0"
       id="path2990-6"
       style="fill:none;stroke:#e77e18;stroke-width:5.8012414;stroke-linecap:butt;stroke-linejoin:miter;stroke-miterlimit:4;stroke-opacity:1;stroke-dasharray:none" />
    <path
       d="M 47.271401,870.20261 64.68884,887.62005 47.271401,905.03749"
       id="path2992-5"
       style="fill:none;stroke:#e77e18;stroke-width:5.8012414;stroke-linecap:butt;stroke-linejoin:miter;stroke-miterlimit:4;stroke-opacity:1;stroke-dasharray:none" />
    <path
       d="m 6.38198,922.4549 58.058226,0"
       id="path2990-6-6"
       style="fill:none;stroke:#e77e18;stroke-width:5.8012414;stroke-linecap:butt;stroke-linejoin:miter;stroke-miterlimit:4;stroke-opacity:1;stroke-dasharray:none" />
    <path
       d="M 47.022761,905.03749 64.440206,922.4549 47.022761,939.8724"
       id="path2992-5-0"
       style="fill:none;stroke:#e77e18;stroke-width:5.8012414;stroke-linecap:butt;stroke-linejoin:miter;stroke-miterlimit:4;stroke-opacity:1;stroke-dasharray:none" />
    <text
       x="101.78864"
       y="1016.9838"
       id="text3804"
       xml:space="preserve"
       style="font-size:75px;font-style:normal;font-weight:normal;line-height:125%;letter-spacing:0px;word-spacing:0px;fill:#de0f0f;fill-opacity:1;stroke:none;font-family:Sans"><tspan
         x="101.78864"
         y="1016.9838"
         id="tspan3806">.pdf</tspan><tspan
         x="101.78864"
         y="1110.7338"
         id="tspan3808" /></text>
  </g>
</svg>
