<?xml version="1.0" encoding="UTF-8" standalone="no"?>
<!-- Created with Inkscape (http://www.inkscape.org/) -->

<svg
   xmlns:dc="http://purl.org/dc/elements/1.1/"
   xmlns:cc="http://creativecommons.org/ns#"
   xmlns:rdf="http://www.w3.org/1999/02/22-rdf-syntax-ns#"
   xmlns:svg="http://www.w3.org/2000/svg"
   xmlns="http://www.w3.org/2000/svg"
   xmlns:xlink="http://www.w3.org/1999/xlink"
   xmlns:sodipodi="http://sodipodi.sourceforge.net/DTD/sodipodi-0.dtd"
   xmlns:inkscape="http://www.inkscape.org/namespaces/inkscape"
   version="1.1"
   width="256"
   height="256"
   id="svg2"
   inkscape:version="0.91 r13725"
   sodipodi:docname="Load.svg">
  <sodipodi:namedview
     pagecolor="#ffffff"
     bordercolor="#666666"
     borderopacity="1"
     objecttolerance="10"
     gridtolerance="10"
     guidetolerance="10"
     inkscape:pageopacity="0"
     inkscape:pageshadow="2"
     inkscape:window-width="1920"
     inkscape:window-height="983"
     id="namedview38"
     showgrid="false"
     inkscape:zoom="3.6875"
     inkscape:cx="110.29814"
     inkscape:cy="115.49359"
     inkscape:window-x="0"
     inkscape:window-y="27"
     inkscape:window-maximized="1"
     inkscape:current-layer="svg2" />
  <defs
     id="defs4">
    <linearGradient
       x1="401.26904"
       y1="415.90878"
       x2="400.54214"
       y2="515.95544"
       id="linearGradient1521"
       xlink:href="#linearGradient1476"
       gradientUnits="userSpaceOnUse"
       gradientTransform="matrix(1.386228,0,0,1.386228,-150.0418,-215.6133)" />
    <linearGradient
       x1="1543.9465"
       y1="-1141.3882"
       x2="1543.9049"
       y2="-1123.4972"
       id="linearGradient1519"
       xlink:href="#linearGradient1391"
       gradientUnits="userSpaceOnUse"
       gradientTransform="matrix(1.060774,0.892405,-0.894185,1.059274,-2496.471,442.6346)" />
    <linearGradient
       id="linearGradient1391">
      <stop
         id="stop1393"
         style="stop-color:#000000;stop-opacity:1"
         offset="0" />
      <stop
         id="stop1395"
         style="stop-color:#000000;stop-opacity:0"
         offset="1" />
    </linearGradient>
    <linearGradient
       id="linearGradient1476">
      <stop
         id="stop1478"
         style="stop-color:#ff9999;stop-opacity:1"
         offset="0" />
      <stop
         id="stop1480"
         style="stop-color:#ff9999;stop-opacity:0"
         offset="1" />
    </linearGradient>
    <linearGradient
       x1="58.748795"
       y1="2.047786"
       x2="105.32369"
       y2="58.047787"
       id="linearGradient5862"
       xlink:href="#linearGradient5113"
       gradientUnits="userSpaceOnUse"
       gradientTransform="matrix(1.004639,0,0,1,-55.021331,-3.04779)" />
    <linearGradient
       id="linearGradient5113">
      <stop
         id="stop5115"
         style="stop-color:#ffffff;stop-opacity:1"
         offset="0" />
      <stop
         id="stop5117"
         style="stop-color:#ffffff;stop-opacity:0"
         offset="1" />
    </linearGradient>
  </defs>
  <metadata
     id="metadata7">
    <rdf:RDF>
      <cc:Work
         rdf:about="">
        <dc:format>image/svg+xml</dc:format>
        <dc:type
           rdf:resource="http://purl.org/dc/dcmitype/StillImage" />
        <dc:title></dc:title>
      </cc:Work>
    </rdf:RDF>
  </metadata>
  <g
     transform="translate(0,-796.36218)"
     id="layer1">
    <g
       transform="matrix(0.31360101,0,0,0.31360101,13.548673,787.90429)"
       id="layer1-9">
      <g
         transform="translate(0,44.44671)"
         id="g1484">
        <path
           d="m 553.49059,345.33862 c -124.71245,0.75479 -324.94052,102.66754 -324.94066,102.66754 -34.6557,19.80327 -45.52886,73.2535 -45.52886,73.2535 l -87.938856,43.57956 -1.55951,49.81758 102.147696,84.73321 88.2598,-53.22577 c 16.7114,10.047 33.2664,18.51927 59.41691,7.91343 0,0 368.89075,-183.50492 292.23412,-279.71489 -16.85404,-21.15314 -46.36906,-29.24035 -82.09064,-29.02416 z"
           id="path1345"
           style="color:#000000;fill:#de0505;fill-opacity:1;fill-rule:evenodd;stroke:#000000;stroke-width:25.36797714;stroke-linecap:butt;stroke-linejoin:miter;stroke-miterlimit:4;stroke-opacity:1;stroke-dasharray:none;stroke-dashoffset:0;marker:none;visibility:visible;display:inline;overflow:visible" />
        <path
           d="m 627.17736,403.86345 c -1.4e-4,0 -64.83778,81.24802 -270.44455,155.56081 -29.38458,-48.84244 -116.92046,-96.86962 -148.07886,-84.79509 -41.12703,21.49357 15.99264,176.76318 130.70775,185.16669 27.30579,-16.80361 239.54276,-131.61114 287.81566,-255.93241 z"
           id="path1518"
           style="color:#000000;fill:#000000;fill-opacity:0.36538463;fill-rule:evenodd;stroke:none;stroke-width:10.14999962;marker:none;visibility:visible;display:inline;overflow:visible" />
        <path
           d="m 106.32729,570.6447 -0.34988,39.57134 91.08463,74.6123 100.98233,-62.23187 4.26497,-44.96056 -107.14879,-48.4622 -88.83326,41.47099 z"
           id="path1373"
           style="color:#000000;fill:#8b8b8b;fill-opacity:1;fill-rule:evenodd;stroke:none;stroke-width:18;marker:none;visibility:visible;display:inline;overflow:visible" />
        <path
           d="m 107.18647,570.99601 98.36358,-55.13393 c 28.54646,-0.45184 90.1133,36.86167 97.20386,61.77947 l -107.8835,67.62056 -87.68394,-74.2661 z"
           id="rect1349"
           style="fill:#e8e8e8;fill-opacity:1;fill-rule:evenodd;stroke:none" />
        <g
           transform="matrix(1.370506,-0.208195,0.208195,1.370506,-2485.086,849.2055)"
           id="g1348">
          <path
             d="m 1956.2304,94.640999 14.7348,16.493581 -11.2312,4.85759 -15.31,-16.726745 11.8064,-4.624426 z"
             id="path1489"
             style="fill:#000000;fill-opacity:1;fill-rule:evenodd;stroke:none" />
          <path
             d="m 1932.9231,70.768389 14.8972,15.228693 -10.8184,5.37065 -14.9899,-16.726744 10.9111,-3.872599 z"
             id="rect1467"
             style="fill:#000000;fill-opacity:1;fill-rule:evenodd;stroke:none" />
        </g>
        <path
           d="m 111.30051,580.39371 76.60399,65.28614 0.0608,25.26113 -75.61376,-64.79112 -1.051,-25.75615 z"
           id="rect1388"
           style="fill:url(#linearGradient1519);fill-opacity:1;fill-rule:evenodd;stroke:none" />
        <path
           d="m 247.01362,463.94255 c 0,0 275.11005,-143.65859 355.80833,-91.67503 28.992,18.67582 -11.36568,62.56926 -46.39746,70.64679 -178.25772,41.10211 -100.64224,-45.89335 -309.41087,21.02824 z"
           id="path1474"
           style="color:#000000;fill:url(#linearGradient1521);fill-opacity:1;fill-rule:evenodd;stroke:none;stroke-width:10.14999962;marker:none;visibility:visible;display:inline;overflow:visible" />
      </g>
    </g>
    <g
       transform="matrix(0.07003652,-3.2685401,3.2685401,0.07003652,54.390907,962.1678)"
       id="layer1-3">
      <path
         d="M 42.5,25.52548 30.46475,39.5 18.48982,25.52548 l 6.09179,0 c 2.0473,-5.48597 -2.1567,-8.9778 -7.03107,-8.9778 -3.46376,0 -8.16323,1.90496 -9.75068,6.6414 C 6.9742,25.6526 5.51992,24.5734 5.57612,22.43234 5.79365,14.17053 11.919,7.56333 21.06314,7.56333 c 9.14414,0 15.93686,7.09859 15.42377,17.96215 l 6.01309,0 z"
         id="path4972"
         style="color:#000000;fill:#3465a4;fill-opacity:1;fill-rule:nonzero;stroke:#204a87;stroke-width:0.99999964;stroke-linecap:butt;stroke-linejoin:miter;stroke-miterlimit:4;stroke-opacity:1;stroke-dasharray:none;stroke-dashoffset:0;marker:none;visibility:visible;display:inline;overflow:visible" />
      <path
         d="M 6.12214,21.74416 C 11.82862,5.67258 31.52706,9.69899 31.11819,25.79396 31.01756,29.68891 30.84925,35.8474 30.47014,39 L 41.46967,26.09181 36,26 C 38.09867,3.40351 8.41287,2.09254 6.12214,21.74416 z"
         id="path4984"
         style="opacity:0.35393258;color:#000000;fill:#729fcf;fill-opacity:1;fill-rule:nonzero;stroke:none;stroke-width:1;marker:none;visibility:visible;display:inline;overflow:visible" />
      <path
         d="m 40.38215,26.52548 -9.9174,11.5424 -9.85707,-11.5424 4.69895,0 C 27.78439,21 24.20791,15.62862 18,15.52859 14.10075,15.46576 12.05305,16.76164 9.3376,19 7.84959,20.22658 7.08988,22.63896 6.73938,23.51309 6.25882,23.53771 6.54136,20.83259 7,19.15015 8.67191,13.01699 13.84662,8.49937 21.18388,8.48567 c 7.33726,-0.0137 15.30137,5.0245 14.30303,18.03981 l 4.89524,0 z"
         id="path4980"
         style="opacity:0.35400008;color:#000000;fill:none;stroke:url(#linearGradient5862);stroke-width:0.99999958;stroke-linecap:butt;stroke-linejoin:miter;stroke-miterlimit:4;stroke-opacity:1;stroke-dasharray:none;stroke-dashoffset:0;marker:none;visibility:visible;display:inline;overflow:visible;enable-background:accumulate" />
    </g>
  </g>
</svg>
